<mxfile host="app.diagrams.net" modified="2025-10-13T18:18:00.000Z" agent="Gemini-AI-Assistant" etag="zY9x8w7v6u5t4s3r" version="22.1.0" type="device">
  <diagram id="class-diagram" name="Page-1">
    <mxGraphModel dx="1600" dy="900" grid="1" gridSize="10" guides="1" tooltips="1" connect="1" arrows="1" fold="1" page="1" pageScale="1" pageWidth="1400" pageHeight="1100" math="0" shadow="0">
      <root>
        <mxCell id="0" />
        <mxCell id="1" parent="0" />
        <mxCell id="class-user" value="" style="swimlane;fontStyle=1;align=center;verticalAlign=top;childLayout=stackLayout;horizontal=1;startSize=26;horizontalStack=0;resizeParent=1;resizeParentMax=0;resizeLast=0;collapsible=0;marginBottom=0;html=1;" vertex="1" parent="1">
          <mxGeometry x="960" y="40" width="360" height="240" as="geometry" />
        </mxCell>
        <mxCell id="user-title" value="User" style="text;strokeColor=none;fillColor=none;align=center;verticalAlign=middle;whiteSpace=wrap;rounded=0;" vertex="1" parent="class-user">
          <mxGeometry y="26" width="360" height="30" as="geometry" />
        </mxCell>
        <mxCell id="user-attribs" value="+ userId: String&lt;br&gt;+ isLoggedIn: boolean" style="text;strokeColor=none;fillColor=none;align=left;verticalAlign=top;whiteSpace=wrap;rounded=0;spacingLeft=4;" vertex="1" parent="class-user">
          <mxGeometry y="56" width="360" height="40" as="geometry" />
        </mxCell>
        <mxCell id="user-methods" value="+ login(): void&lt;br&gt;+ logout(): void&lt;br&gt;+ search(query: String): Book[]&lt;br&gt;+ browse(): Book[]&lt;br&gt;+ viewBookDetails(book: Book): void&lt;br&gt;+ rateBook(book: Book, rating: int): void&lt;br&gt;+ writeReview(book: Book, text: String): void&lt;br&gt;+ addToWishlist(book: Book): void&lt;br&gt;+ getRecommendations(): Book[]&lt;br&gt;+ purchaseBooks(books: Book[]): void" style="text;strokeColor=none;fillColor=none;align=left;verticalAlign=top;whiteSpace=wrap;rounded=0;spacingLeft=4;" vertex="1" parent="class-user">
          <mxGeometry y="96" width="360" height="144" as="geometry" />
        </mxCell>
        <mxCell id="class-admin" value="" style="swimlane;fontStyle=1;align=center;verticalAlign=top;childLayout=stackLayout;horizontal=1;startSize=26;horizontalStack=0;resizeParent=1;resizeParentMax=0;resizeLast=0;collapsible=0;marginBottom=0;html=1;" vertex="1" parent="1">
          <mxGeometry x="500" y="40" width="320" height="120" as="geometry" />
        </mxCell>
        <mxCell id="admin-title" value="Administrator" style="text;strokeColor=none;fillColor=none;align=center;verticalAlign=middle;whiteSpace=wrap;rounded=0;" vertex="1" parent="class-admin">
          <mxGeometry y="26" width="320" height="30" as="geometry" />
        </mxCell>
        <mxCell id="admin-attribs" value="+ adminId: String" style="text;strokeColor=none;fillColor=none;align=left;verticalAlign=top;whiteSpace=wrap;rounded=0;spacingLeft=4;" vertex="1" parent="class-admin">
          <mxGeometry y="56" width="320" height="20" as="geometry" />
        </mxCell>
        <mxCell id="admin-methods" value="+ addBook(bookData: Map): void&lt;br&gt;+ updateBook(bookId: String, bookData: Map): void&lt;br&gt;+ removeBook(bookId: String): void&lt;br&gt;+ manageUser(userId: String): void" style="text;strokeColor=none;fillColor=none;align=left;verticalAlign=top;whiteSpace=wrap;rounded=0;spacingLeft=4;" vertex="1" parent="class-admin">
          <mxGeometry y="76" width="320" height="44" as="geometry" />
        </mxCell>
        <mxCell id="class-applogic" value="" style="swimlane;fontStyle=1;align=center;verticalAlign=top;childLayout=stackLayout;horizontal=1;startSize=26;horizontalStack=0;resizeParent=1;resizeParentMax=0;resizeLast=0;collapsible=0;marginBottom=0;html=1;" vertex="1" parent="1">
          <mxGeometry x="420" y="240" width="480" height="240" as="geometry" />
        </mxCell>
        <mxCell id="applogic-title" value="ApplicationLogic" style="text;strokeColor=none;fillColor=none;align=center;verticalAlign=middle;whiteSpace=wrap;rounded=0;" vertex="1" parent="class-applogic">
          <mxGeometry y="26" width="480" height="30" as="geometry" />
        </mxCell>
        <mxCell id="applogic-methods" value="+ searchBooks(query: String): Book[]&lt;br&gt;+ fetchBrowsingData(): Book[]&lt;br&gt;+ getBookDetails(bookId: String): Book&lt;br&gt;+ submitRating(userId: String, bookId: String, rating: int): void&lt;br&gt;+ saveReview(review: Review): void&lt;br&gt;+ updateWishlist(userId: String, bookId: String): void&lt;br&gt;+ processAIRecommendations(userId: String): Book[]&lt;br&gt;+ createOrder(userId: String, bookIds: String[]): Order&lt;br&gt;+ processPayment(orderId: String, paymentDetails: Map): boolean&lt;br&gt;+ addBook(bookData: Map): void&lt;br&gt;+ updateBook(bookId: String, bookData: Map): void&lt;br&gt;+ removeBook(bookId: String): void" style="text;strokeColor=none;fillColor=none;align=left;verticalAlign=top;whiteSpace=wrap;rounded=0;spacingLeft=4;" vertex="1" parent="class-applogic">
          <mxGeometry y="56" width="480" height="184" as="geometry" />
        </mxCell>
        <mxCell id="class-ai" value="" style="swimlane;fontStyle=1;align=center;verticalAlign=top;childLayout=stackLayout;horizontal=1;startSize=26;horizontalStack=0;resizeParent=1;resizeParentMax=0;resizeLast=0;collapsible=0;marginBottom=0;html=1;" vertex="1" parent="1">
          <mxGeometry x="40" y="320" width="320" height="80" as="geometry" />
        </mxCell>
        <mxCell id="ai-title" value="AIRecommender" style="text;strokeColor=none;fillColor=none;align=center;verticalAlign=middle;whiteSpace=wrap;rounded=0;" vertex="1" parent="class-ai">
          <mxGeometry y="26" width="320" height="30" as="geometry" />
        </mxCell>
        <mxCell id="ai-methods" value="+ generateRecommendations(userId: String): Book[]" style="text;strokeColor=none;fillColor=none;align=left;verticalAlign=top;whiteSpace=wrap;rounded=0;spacingLeft=4;" vertex="1" parent="class-ai">
          <mxGeometry y="56" width="320" height="24" as="geometry" />
        </mxCell>
        <mxCell id="class-paymentgateway" value="" style="swimlane;fontStyle=1;align=center;verticalAlign=top;childLayout=stackLayout;horizontal=1;startSize=26;horizontalStack=0;resizeParent=1;resizeParentMax=0;resizeLast=0;collapsible=0;marginBottom=0;html=1;" vertex="1" parent="1">
          <mxGeometry x="360" y="520" width="360" height="80" as="geometry" />
        </mxCell>
        <mxCell id="paymentgateway-title" value="&amp;lt;&amp;lt;interface&amp;gt;&amp;gt;&lt;br&gt;PaymentGateway" style="text;strokeColor=none;fillColor=none;align=center;verticalAlign=middle;whiteSpace=wrap;rounded=0;" vertex="1" parent="class-paymentgateway">
          <mxGeometry y="26" width="360" height="30" as="geometry" />
        </mxCell>
        <mxCell id="paymentgateway-methods" value="+ processTransaction(amount: float, details: Map): boolean" style="text;strokeColor=none;fillColor=none;align=left;verticalAlign=top;whiteSpace=wrap;rounded=0;spacingLeft=4;" vertex="1" parent="class-paymentgateway">
          <mxGeometry y="56" width="360" height="24" as="geometry" />
        </mxCell>
        <mxCell id="class-database" value="" style="swimlane;fontStyle=1;align=center;verticalAlign=top;childLayout=stackLayout;horizontal=1;startSize=26;horizontalStack=0;resizeParent=1;resizeParentMax=0;resizeLast=0;collapsible=0;marginBottom=0;html=1;" vertex="1" parent="1">
          <mxGeometry x="480" y="640" width="460" height="260" as="geometry" />
        </mxCell>
        <mxCell id="database-title" value="&amp;lt;&amp;lt;interface&amp;gt;&amp;gt;&lt;br&gt;Database" style="text;strokeColor=none;fillColor=none;align=center;verticalAlign=middle;whiteSpace=wrap;rounded=0;" vertex="1" parent="class-database">
          <mxGeometry y="26" width="460" height="30" as="geometry" />
        </mxCell>
        <mxCell id="database-methods" value="+ queryDatabase(query: String): Data&lt;br&gt;+ fetchBookDetails(bookId: String): Book&lt;br&gt;+ updateRating(bookId: String, rating: int): void&lt;br&gt;+ storeReview(review: Review): void&lt;br&gt;+ storeWishlistData(userId: String, bookId: String): void&lt;br&gt;+ retrieveRelatedBooks(userId: String): Book[]&lt;br&gt;-- Admin-related persistence --&lt;br&gt;+ insertBook(book: Book): void&lt;br&gt;+ updateBookRecord(book: Book): void&lt;br&gt;+ deleteBookRecord(bookId: String): void&lt;br&gt;-- Order &amp;amp; Payment persistence --&lt;br&gt;+ storeOrder(order: Order): void&lt;br&gt;+ storePayment(payment: Payment): void&lt;br&gt;+ updateOrderStatus(orderId: String, status: String): void" style="text;strokeColor=none;fillColor=none;align=left;verticalAlign=top;whiteSpace=wrap;rounded=0;spacingLeft=4;" vertex="1" parent="class-database">
          <mxGeometry y="56" width="460" height="204" as="geometry" />
        </mxCell>
        <mxCell id="class-order" value="" style="swimlane;fontStyle=1;align=center;verticalAlign=top;childLayout=stackLayout;horizontal=1;startSize=26;horizontalStack=0;resizeParent=1;resizeParentMax=0;resizeLast=0;collapsible=0;marginBottom=0;html=1;" vertex="1" parent="1">
          <mxGeometry x="960" y="520" width="220" height="120" as="geometry" />
        </mxCell>
        <mxCell id="order-title" value="Order" style="text;strokeColor=none;fillColor=none;align=center;verticalAlign=middle;whiteSpace=wrap;rounded=0;" vertex="1" parent="class-order">
          <mxGeometry y="26" width="220" height="30" as="geometry" />
        </mxCell>
        <mxCell id="order-attribs" value="+ orderId: String&lt;br&gt;+ userId: String&lt;br&gt;+ totalAmount: float&lt;br&gt;+ status: String&lt;br&gt;+ orderDate: DateTime" style="text;strokeColor=none;fillColor=none;align=left;verticalAlign=top;whiteSpace=wrap;rounded=0;spacingLeft=4;" vertex="1" parent="class-order">
          <mxGeometry y="56" width="220" height="64" as="geometry" />
        </mxCell>
        <mxCell id="class-payment" value="" style="swimlane;fontStyle=1;align=center;verticalAlign=top;childLayout=stackLayout;horizontal=1;startSize=26;horizontalStack=0;resizeParent=1;resizeParentMax=0;resizeLast=0;collapsible=0;marginBottom=0;html=1;" vertex="1" parent="1">
          <mxGeometry x="840" y="720" width="220" height="100" as="geometry" />
        </mxCell>
        <mxCell id="payment-title" value="Payment" style="text;strokeColor=none;fillColor=none;align=center;verticalAlign=middle;whiteSpace=wrap;rounded=0;" vertex="1" parent="class-payment">
          <mxGeometry y="26" width="220" height="30" as="geometry" />
        </mxCell>
        <mxCell id="payment-attribs" value="+ paymentId: String&lt;br&gt;+ orderId: String&lt;br&gt;+ transactionId: String&lt;br&gt;+ paymentMethod: String" style="text;strokeColor=none;fillColor=none;align=left;verticalAlign=top;whiteSpace=wrap;rounded=0;spacingLeft=4;" vertex="1" parent="class-payment">
          <mxGeometry y="56" width="220" height="44" as="geometry" />
        </mxCell>
        <mxCell id="class-book" value="" style="swimlane;fontStyle=1;align=center;verticalAlign=top;childLayout=stackLayout;horizontal=1;startSize=26;horizontalStack=0;resizeParent=1;resizeParentMax=0;resizeLast=0;collapsible=0;marginBottom=0;html=1;" vertex="1" parent="1">
          <mxGeometry x="1080" y="720" width="240" height="140" as="geometry" />
        </mxCell>
        <mxCell id="book-title" value="Book" style="text;strokeColor=none;fillColor=none;align=center;verticalAlign=middle;whiteSpace=wrap;rounded=0;" vertex="1" parent="class-book">
          <mxGeometry y="26" width="240" height="30" as="geometry" />
        </mxCell>
        <mxCell id="book-attribs" value="+ bookId: String&lt;br&gt;+ title: String&lt;br&gt;+ author: String&lt;br&gt;+ synopsis: String&lt;br&gt;+ genre: String&lt;br&gt;+ averageRating: float" style="text;strokeColor=none;fillColor=none;align=left;verticalAlign=top;whiteSpace=wrap;rounded=0;spacingLeft=4;" vertex="1" parent="class-book">
          <mxGeometry y="56" width="240" height="84" as="geometry" />
        </mxCell>
        <mxCell id="class-review" value="" style="swimlane;fontStyle=1;align=center;verticalAlign=top;childLayout=stackLayout;horizontal=1;startSize=26;horizontalStack=0;resizeParent=1;resizeParentMax=0;resizeLast=0;collapsible=0;marginBottom=0;html=1;" vertex="1" parent="1">
          <mxGeometry x="1080" y="920" width="240" height="100" as="geometry" />
        </mxCell>
        <mxCell id="review-title" value="Review" style="text;strokeColor=none;fillColor=none;align=center;verticalAlign=middle;whiteSpace=wrap;rounded=0;" vertex="1" parent="class-review">
          <mxGeometry y="26" width="240" height="30" as="geometry" />
        </mxCell>
        <mxCell id="review-attribs" value="+ userId: String&lt;br&gt;+ bookId: String&lt;br&gt;+ rating: int&lt;br&gt;+ reviewText: String" style="text;strokeColor=none;fillColor=none;align=left;verticalAlign=top;whiteSpace=wrap;rounded=0;spacingLeft=4;" vertex="1" parent="class-review">
          <mxGeometry y="56" width="240" height="44" as="geometry" />
        </mxCell>
        <mxCell id="rel-admin-applogic" value="uses to manage system" style="edgeStyle=none;html=1;endArrow=none;endFill=0;exitX=0.5;exitY=1;exitDx=0;exitDy=0;entryX=0.33;entryY=0;entryDx=0;entryDy=0;entryPerimeter=0;" edge="1" parent="1" source="class-admin" target="class-applogic">
          <mxGeometry relative="1" as="geometry" />
        </mxCell>
        <mxCell id="rel-user-applogic" value="interacts with" style="edgeStyle=elbowEdgeStyle;html=1;endArrow=open;endFill=0;dashed=1;exitX=0;exitY=0.5;exitDx=0;exitDy=0;entryX=1;entryY=0.25;entryDx=0;entryDy=0;" edge="1" parent="1" source="class-user" target="class-applogic">
          <mxGeometry relative="1" as="geometry">
            <Array as="points">
              <mxPoint x="930" y="300" />
            </Array>
          </mxGeometry>
        </mxCell>
        <mxCell id="note-user-applogic" value="User actions trigger methods&lt;br&gt;in ApplicationLogic." style="shape=note;whiteSpace=wrap;html=1;backgroundOutline=1;darkOpacity=0.05;fillColor=#f5f5f5;strokeColor=#666666;" vertex="1" parent="1">
          <mxGeometry x="720" y="160" width="180" height="60" as="geometry" />
        </mxCell>
        <mxCell id="rel-note-connector" style="edgeStyle=none;html=1;endArrow=none;endFill=0;dashed=1;entryX=0.5;entryY=1;entryDx=0;entryDy=0;" edge="1" parent="1" source="rel-user-applogic" target="note-user-applogic">
          <mxGeometry relative="1" as="geometry">
            <mxPoint x="880" y="270" as="sourcePoint" />
          </mxGeometry>
        </mxCell>
        <mxCell id="rel-applogic-ai" value="uses" style="edgeStyle=elbowEdgeStyle;html=1;endArrow=open;endFill=0;dashed=1;exitX=0;exitY=0.5;exitDx=0;exitDy=0;entryX=1;entryY=0.5;entryDx=0;entryDy=0;" edge="1" parent="1" source="class-applogic" target="class-ai">
          <mxGeometry relative="1" as="geometry" />
        </mxCell>
        <mxCell id="rel-ai-applogic-unlabeled" style="edgeStyle=elbowEdgeStyle;html=1;endArrow=open;endFill=0;dashed=1;exitX=1;exitY=0.25;exitDx=0;exitDy=0;entryX=0;entryY=0.25;entryDx=0;entryDy=0;" edge="1" parent="1" source="class-ai" target="class-applogic">
          <mxGeometry relative="1" as="geometry">
            <Array as="points">
              <mxPoint x="390" y="300" />
            </Array>
          </mxGeometry>
        </mxCell>
        <mxCell id="rel-applogic-paymentgateway" value="uses for transactions" style="edgeStyle=elbowEdgeStyle;html=1;endArrow=open;endFill=0;dashed=1;exitX=0.25;exitY=1;exitDx=0;exitDy=0;entryX=0.5;entryY=0;entryDx=0;entryDy=0;" edge="1" parent="1" source="class-applogic" target="class-paymentgateway">
          <mxGeometry relative="1" as="geometry">
            <Array as="points">
              <mxPoint x="540" y="500" />
            </Array>
          </mxGeometry>
        </mxCell>
        <mxCell id="rel-applogic-database" value="uses" style="edgeStyle=elbowEdgeStyle;html=1;endArrow=open;endFill=0;dashed=1;exitX=0.75;exitY=1;exitDx=0;exitDy=0;entryX=0.5;entryY=0;entryDx=0;entryDy=0;" edge="1" parent="1" source="class-applogic" target="class-database">
          <mxGeometry relative="1" as="geometry">
            <Array as="points">
              <mxPoint x="780" y="620" />
            </Array>
          </mxGeometry>
        </mxCell>
        <mxCell id="rel-applogic-order" value="creates &amp;amp; manages" style="edgeStyle=elbowEdgeStyle;html=1;endArrow=open;endFill=0;dashed=1;exitX=1;exitY=0.75;exitDx=0;exitDy=0;entryX=0;entryY=0.5;entryDx=0;entryDy=0;" edge="1" parent="1" source="class-applogic" target="class-order">
          <mxGeometry relative="1" as="geometry">
            <Array as="points">
              <mxPoint x="930" y="580" />
            </Array>
          </mxGeometry>
        </mxCell>
        <mxCell id="rel-applogic-review" value="handles" style="edgeStyle=elbowEdgeStyle;html=1;endArrow=open;endFill=0;dashed=1;exitX=0;exitY=1;exitDx=0;exitDy=0;entryX=0;entryY=0.5;entryDx=0;entryDy=0;" edge="1" parent="1" source="class-applogic" target="class-review">
          <mxGeometry relative="1" as="geometry">
            <Array as="points">
              <mxPoint x="200" y="700" />
              <mxPoint x="200" y="970" />
            </Array>
          </mxGeometry>
        </mxCell>
        <mxCell id="rel-user-order" value="places" style="edgeStyle=none;html=1;endArrow=none;endFill=0;exitX=1;exitY=0.75;exitDx=0;exitDy=0;entryX=0.5;entryY=0;entryDx=0;entryDy=0;" edge="1" parent="1" source="class-user" target="class-order">
          <mxGeometry relative="1" as="geometry">
            <mxPoint x="1140" y="279.5" as="sourcePoint" />
          </mxGeometry>
        </mxCell>
        <mxCell id="rel-user-wishlist-book" value="adds to wishlist" style="edgeStyle=none;html=1;endArrow=none;endFill=0;exitX=1;exitY=1;exitDx=0;exitDy=0;entryX=0.5;entryY=0;entryDx=0;entryDy=0;" edge="1" parent="1" source="class-user" target="class-book">
          <mxGeometry relative="1" as="geometry" />
        </mxCell>
        <mxCell id="rel-user-review" value="writes" style="edgeStyle=none;html=1;endArrow=none;endFill=0;exitX=0.5;exitY=1;exitDx=0;exitDy=0;" edge="1" parent="1" source="class-user" target="class-review">
          <mxGeometry relative="1" as="geometry">
            <Array as="points">
              <mxPoint x="1140" y="440" />
              <mxPoint x="1200" y="440" />
            </Array>
          </mxGeometry>
        </mxCell>
        <mxCell id="rel-order-payment" value="has" style="edgeStyle=none;html=1;endArrow=none;endFill=0;exitX=0;exitY=1;exitDx=0;exitDy=0;entryX=0.5;entryY=0;entryDx=0;entryDy=0;" edge="1" parent="1" source="class-order" target="class-payment">
          <mxGeometry relative="1" as="geometry" />
        </mxCell>
        <mxCell id="rel-order-book" value="contains" style="edgeStyle=none;html=1;endArrow=none;endFill=0;exitX=1;exitY=0.75;exitDx=0;exitDy=0;entryX=0;entryY=0.5;entryDx=0;entryDy=0;" edge="1" parent="1" source="class-order" target="class-book">
          <mxGeometry relative="1" as="geometry" />
        </mxCell>
        <mxCell id="rel-book-review" value="has" style="edgeStyle=none;html=1;endArrow=none;endFill=0;exitX=0.5;exitY=1;exitDx=0;exitDy=0;entryX=0.5;entryY=0;entryDx=0;entryDy=0;" edge="1" parent="1" source="class-book" target="class-review">
          <mxGeometry relative="1" as="geometry" />
        </mxCell>
      </root>
    </mxGraphModel>
  </diagram>
</mxfile>